<svg xmlns="http://www.w3.org/2000/svg" viewBox="0 0 16 16" shape-rendering="crispEdges" role="img" aria-label="icon-audit"><title>icon-audit</title><rect x="1" y="0" width="13" height="1" fill="#000000"/><rect x="1" y="1" width="1" height="1" fill="#000000"/><rect x="2" y="1" width="11" height="1" fill="#FFFFFF"/><rect x="13" y="1" width="1" height="1" fill="#000000"/><rect x="14" y="1" width="1" height="1" fill="#BDB6A4"/><rect x="1" y="2" width="1" height="1" fill="#000000"/><rect x="2" y="2" width="1" height="1" fill="#FFFFFF"/><rect x="3" y="2" width="2" height="1" fill="#2E9E4F"/><rect x="5" y="2" width="1" height="1" fill="#FFFFFF"/><rect x="6" y="2" width="6" height="1" fill="#000000"/><rect x="12" y="2" width="1" height="1" fill="#FFFFFF"/><rect x="13" y="2" width="1" height="1" fill="#000000"/><rect x="14" y="2" width="1" height="1" fill="#BDB6A4"/><rect x="1" y="3" width="1" height="1" fill="#000000"/><rect x="2" y="3" width="1" height="1" fill="#FFFFFF"/><rect x="3" y="3" width="2" height="1" fill="#2E9E4F"/><rect x="5" y="3" width="8" height="1" fill="#FFFFFF"/><rect x="13" y="3" width="1" height="1" fill="#000000"/><rect x="14" y="3" width="1" height="1" fill="#BDB6A4"/><rect x="1" y="4" width="1" height="1" fill="#000000"/><rect x="2" y="4" width="11" height="1" fill="#FFFFFF"/><rect x="13" y="4" width="1" height="1" fill="#000000"/><rect x="14" y="4" width="1" height="1" fill="#BDB6A4"/><rect x="1" y="5" width="1" height="1" fill="#000000"/><rect x="2" y="5" width="1" height="1" fill="#FFFFFF"/><rect x="3" y="5" width="2" height="1" fill="#2E9E4F"/><rect x="5" y="5" width="1" height="1" fill="#FFFFFF"/><rect x="6" y="5" width="5" height="1" fill="#000000"/><rect x="11" y="5" width="2" height="1" fill="#FFFFFF"/><rect x="13" y="5" width="1" height="1" fill="#000000"/><rect x="14" y="5" width="1" height="1" fill="#BDB6A4"/><rect x="1" y="6" width="1" height="1" fill="#000000"/><rect x="2" y="6" width="1" height="1" fill="#FFFFFF"/><rect x="3" y="6" width="2" height="1" fill="#2E9E4F"/><rect x="5" y="6" width="8" height="1" fill="#FFFFFF"/><rect x="13" y="6" width="1" height="1" fill="#000000"/><rect x="14" y="6" width="1" height="1" fill="#BDB6A4"/><rect x="1" y="7" width="1" height="1" fill="#000000"/><rect x="2" y="7" width="11" height="1" fill="#FFFFFF"/><rect x="13" y="7" width="1" height="1" fill="#000000"/><rect x="14" y="7" width="1" height="1" fill="#BDB6A4"/><rect x="1" y="8" width="1" height="1" fill="#000000"/><rect x="2" y="8" width="1" height="1" fill="#FFFFFF"/><rect x="3" y="8" width="2" height="1" fill="#D93025"/><rect x="5" y="8" width="1" height="1" fill="#FFFFFF"/><rect x="6" y="8" width="6" height="1" fill="#000000"/><rect x="12" y="8" width="1" height="1" fill="#FFFFFF"/><rect x="13" y="8" width="1" height="1" fill="#000000"/><rect x="14" y="8" width="1" height="1" fill="#BDB6A4"/><rect x="1" y="9" width="1" height="1" fill="#000000"/><rect x="2" y="9" width="1" height="1" fill="#FFFFFF"/><rect x="3" y="9" width="2" height="1" fill="#D93025"/><rect x="5" y="9" width="8" height="1" fill="#FFFFFF"/><rect x="13" y="9" width="1" height="1" fill="#000000"/><rect x="14" y="9" width="1" height="1" fill="#BDB6A4"/><rect x="1" y="10" width="1" height="1" fill="#000000"/><rect x="2" y="10" width="11" height="1" fill="#FFFFFF"/><rect x="13" y="10" width="1" height="1" fill="#000000"/><rect x="14" y="10" width="1" height="1" fill="#BDB6A4"/><rect x="1" y="11" width="1" height="1" fill="#000000"/><rect x="2" y="11" width="1" height="1" fill="#FFFFFF"/><rect x="3" y="11" width="2" height="1" fill="#F2A93B"/><rect x="5" y="11" width="1" height="1" fill="#FFFFFF"/><rect x="6" y="11" width="4" height="1" fill="#000000"/><rect x="10" y="11" width="3" height="1" fill="#FFFFFF"/><rect x="13" y="11" width="1" height="1" fill="#000000"/><rect x="14" y="11" width="1" height="1" fill="#BDB6A4"/><rect x="1" y="12" width="1" height="1" fill="#000000"/><rect x="2" y="12" width="1" height="1" fill="#FFFFFF"/><rect x="3" y="12" width="2" height="1" fill="#F2A93B"/><rect x="5" y="12" width="8" height="1" fill="#FFFFFF"/><rect x="13" y="12" width="1" height="1" fill="#000000"/><rect x="14" y="12" width="1" height="1" fill="#BDB6A4"/><rect x="1" y="13" width="1" height="1" fill="#000000"/><rect x="2" y="13" width="11" height="1" fill="#FFFFFF"/><rect x="13" y="13" width="1" height="1" fill="#000000"/><rect x="14" y="13" width="1" height="1" fill="#BDB6A4"/><rect x="1" y="14" width="13" height="1" fill="#000000"/><rect x="14" y="14" width="1" height="1" fill="#BDB6A4"/><rect x="2" y="15" width="13" height="1" fill="#BDB6A4"/></svg>
